
        <svg xmlns="http://www.w3.org/2000/svg" xmlns:xlink="http://www.w3.org/1999/xlink" version="1.1" width="3310.880829015544" 
        height="2658.0310880829015" viewBox="0 0 3310.880829015544 2658.0310880829015">
			
			<g transform="scale(15.544041450777202) translate(10, 10)">
				<defs id="SvgjsDefs2741"></defs><g id="SvgjsG2742" featureKey="rootContainer" transform="matrix(1,0,0,1,0,0)" fill="#d7eef2"><rect width="193" height="151" rx="10"></rect></g><g id="SvgjsG2743" featureKey="symbolFeature-0" transform="matrix(0.9113459733763791,0,0,0.9113459733763791,51.26297455823121,-2.6376268577058433)" fill="#111111"><path xmlns="http://www.w3.org/2000/svg" fill="#111111" d="M97.423,54.297l-2.387-1.518v-6.903l1.857-0.32c0.594-0.102,1.062-0.563,1.174-1.157  s-0.156-1.195-0.673-1.507L58.663,19.561c-0.297-0.18-0.649-0.245-0.99-0.187l-37.099,6.393c-0.397,0.068-0.735,0.298-0.951,0.619  c-0.002,0.003-0.004,0.007-0.006,0.01c-0.046,0.07-0.087,0.145-0.121,0.223c-0.004,0.009-0.008,0.017-0.012,0.026  c-0.035,0.084-0.064,0.172-0.083,0.263c-0.018,0.088-0.024,0.176-0.025,0.264c0,0.009-0.003,0.018-0.003,0.027v10.918  c0,0.073,0.011,0.144,0.021,0.214c-0.096,0.558,0.141,1.145,0.649,1.468l37.124,23.609c0.235,0.146,0.504,0.225,0.777,0.225  c0.082,0,0.164-0.006,0.246-0.021l38.703-6.666c0.587-0.104,1.054-0.557,1.172-1.143C98.183,55.215,97.927,54.617,97.423,54.297z   M22.266,29.825l34.207,21.751v7.959L22.266,37.783V29.825z M59.365,56.602l32.779-5.584v0.838l-32.779,5.58V56.602z M92.145,50.432  l-32.779,5.582v-0.836l32.779-5.583V50.432z M59.365,58.023l32.779-5.58v0.836l-32.779,5.58V58.023z M92.145,49.009L59.365,54.59  v-0.836l32.779-5.582V49.009z M59.365,59.449l32.779-5.582v0.959l-32.779,5.646V59.449z M92.145,47.586l-32.779,5.582v-1.146  l32.779-5.647V47.586z M57.633,22.315l34.94,21.049l-34.324,5.913L24.756,27.981L57.633,22.315z"></path><path xmlns="http://www.w3.org/2000/svg" fill="#111111" d="M94.217,81.123l-2.387-1.518v-6.904l1.856-0.32c0.594-0.102,1.063-0.562,1.175-1.158  c0.111-0.592-0.156-1.193-0.675-1.504L75.344,58.365l0.408,3.623l13.615,8.203l-34.325,5.912l-6.431-4.09l-1.74,0.277l-2.459,0.48  l8.853,5.629v7.961L19.059,64.607v-4.02l-1.984-1.209l-0.908-1.865v7.428c0,0.072,0.012,0.143,0.021,0.213  c-0.095,0.559,0.142,1.145,0.649,1.469L53.961,90.23c0.233,0.148,0.504,0.227,0.776,0.227c0.082,0,0.164-0.008,0.246-0.021  l38.703-6.668c0.588-0.102,1.055-0.555,1.173-1.141C94.976,82.041,94.721,81.443,94.217,81.123z M88.937,81.652l-32.778,5.646  v-1.025l32.778-5.582V81.652z M88.937,80.105l-32.778,5.58V84.85l32.778-5.582V80.105z M88.937,78.68l-32.778,5.582v-0.834  l32.778-5.584V78.68z M88.937,77.258L56.158,82.84v-0.836l32.778-5.582V77.258z M88.937,75.836l-32.778,5.58V80.58l32.778-5.582  V75.836z M88.937,74.412l-32.778,5.58v-1.145l32.778-5.646V74.412z"></path><path xmlns="http://www.w3.org/2000/svg" fill="#111111" d="M79.956,66.004l-2.387-1.518v-4.779l-2.893,0.354v0.654l-32.779,5.58v-0.834l29.006-4.939l-12.168,1.484  l-16.838,2.867v-1.145l15.34-2.643l-3.723-2.295l-12.733,2.193L7.289,39.687l13.333-2.297v-2.935L3.107,37.472  c-0.396,0.068-0.734,0.298-0.951,0.619c-0.002,0.003-0.004,0.007-0.006,0.01c-0.046,0.07-0.087,0.145-0.121,0.223  c-0.004,0.009-0.009,0.018-0.012,0.027c-0.035,0.084-0.064,0.171-0.083,0.262c-0.017,0.088-0.024,0.176-0.025,0.264  c0,0.009-0.003,0.018-0.003,0.027v10.918c0,0.073,0.012,0.144,0.021,0.213c-0.096,0.559,0.142,1.145,0.649,1.467l37.124,23.609  c0.234,0.148,0.504,0.227,0.776,0.227c0.083,0,0.165-0.008,0.247-0.021l38.703-6.668c0.588-0.102,1.055-0.555,1.173-1.143  C80.716,66.92,80.461,66.324,79.956,66.004z M39.006,71.242L4.799,49.488V41.53l34.207,21.751V71.242z M74.677,66.533L41.898,72.18  v-1.025l32.779-5.582V66.533z M74.677,64.986l-32.779,5.58V69.73l32.779-5.582V64.986z M74.677,63.562l-32.779,5.58v-0.836  l32.779-5.582V63.562z M74.677,62.139l-32.779,5.58v-0.836l32.779-5.582V62.139z"></path></g><g id="SvgjsG2744" featureKey="nameLeftFeature-0" transform="matrix(1.813283478777148,0,0,1.813283478777148,19.27403125388788,99.18592790864011)" fill="#111111"><path d="M8.2227 9.365 q-0.048828125 -0.341796875 -0.2392578125 -0.64453125 t-0.48828 -0.52246 t-0.67383 -0.34668 t-0.78613 -0.12695 q-0.37109375 0 -0.693359375 0.078125 t-0.56152 0.23926 t-0.38086 0.41504 t-0.1416 0.60547 q0 0.439453125 0.1904296875 0.6982421875 t0.48828 0.4248 t0.65918 0.26367 t0.70313 0.21484 l2.6855 0.89844 q0.556640625 0.1953125 1.044921875 0.537109375 t0.84473 0.83008 t0.56152 1.123 t0.20508 1.4258 q0 1.07421875 -0.3955078125 1.962890625 t-1.1084 1.5234 t-1.709 0.98633 t-2.207 0.35156 q-0.849609375 0 -1.606445313 -0.1904296875 t-1.3818 -0.55176 t-1.0938 -0.86426 t-0.73242 -1.1377 l-1.0059 0 l0 -2.9395 l3.5352 0 l0 0.60547 q0 0.439453125 0.1416015625 0.810546875 t0.4248 0.64453 t0.71289 0.4248 t1.0059 0.15137 q0.87890625 0 1.337890625 -0.4052734375 t0.45898 -1.1279 q0 -0.37109375 -0.1611328125 -0.6201171875 t-0.41504 -0.41992 t-0.56641 -0.28809 t-0.61523 -0.21484 l-2.2363 -0.72266 q-0.634765625 -0.1953125 -1.225585938 -0.546875 t-1.0449 -0.87891 t-0.72266 -1.2354 t-0.26855 -1.6162 q0 -1.0546875 0.390625 -1.879882813 t1.0938 -1.3916 t1.6699 -0.85938 t2.1191 -0.29297 q0.908203125 0 1.6796875 0.2099609375 t1.3818 0.56152 t1.0352 0.80566 t0.64941 0.94238 l0.97656 0 l0 2.9492 l-3.5352 0 l0 -0.85938 z M19.960903125 20.26367 q-1.005859375 0 -1.923828125 -0.2734375 t-1.7139 -0.77148 t-1.4453 -1.1963 t-1.1084 -1.5527 t-0.71289 -1.8311 t-0.25391 -2.041 t0.25391 -2.0459 t0.71289 -1.8359 t1.1084 -1.5527 t1.4453 -1.1963 t1.7139 -0.77148 t1.9238 -0.27344 t1.9287 0.27344 t1.7188 0.77148 t1.4453 1.1963 t1.1133 1.5527 t0.71777 1.8359 t0.25391 2.0459 q0 1.0546875 -0.25390625 2.036132813 t-0.71777 1.8359 t-1.1133 1.5527 t-1.4453 1.1963 t-1.7188 0.77148 t-1.9287 0.27344 z M19.960903125 17.1973 q0.849609375 0 1.557617188 -0.3662109375 t1.2158 -0.99609 t0.78613 -1.4648 t0.27832 -1.7725 q0 -0.947265625 -0.283203125 -1.787109375 t-0.7959 -1.4697 t-1.2158 -0.99609 t-1.543 -0.36621 t-1.543 0.36621 t-1.2109 0.99609 t-0.7959 1.4697 t-0.28809 1.7871 q0 0.9375 0.2880859375 1.772460938 t0.7959 1.4648 t1.2109 0.99609 t1.543 0.36621 z M15.888703125 2.196999999999999 q0 -0.361328125 0.1318359375 -0.6787109375 t0.36621 -0.55664 t0.55176 -0.37598 t0.68848 -0.13672 q0.3515625 0 0.6640625 0.13671875 t0.54688 0.37598 t0.37109 0.55664 t0.13672 0.67871 t-0.13672 0.67871 t-0.37109 0.55176 t-0.54688 0.37109 t-0.66406 0.13672 q-0.37109375 0 -0.6884765625 -0.13671875 t-0.55176 -0.37109 t-0.36621 -0.55176 t-0.13184 -0.67871 z M20.566403125 2.196999999999999 q0 -0.361328125 0.13671875 -0.6787109375 t0.37109 -0.55664 t0.55176 -0.37598 t0.68848 -0.13672 q0.3515625 0 0.6640625 0.13671875 t0.54688 0.37598 t0.37109 0.55664 t0.13672 0.67871 t-0.13672 0.67871 t-0.37109 0.55176 t-0.54688 0.37109 t-0.66406 0.13672 q-0.37109375 0 -0.6884765625 -0.13671875 t-0.55176 -0.37109 t-0.37109 -0.55176 t-0.13672 -0.67871 z M39.833515625000004 8.262 l-7.373 8.8379 l4.1797 0 l0 -2.2949 l3.1738 0 l0 5.1953 l-11.24 0 l0 -3.0566 l7.1973 -8.8477 l-3.9941 0 l0 2.3438 l-3.1836 0 l0 -5.2441 l11.24 0 l0 3.0664 z"></path></g><g id="SvgjsG2745" featureKey="nameRightFeature-0" transform="matrix(1.853385293359228,0,0,1.853385293359228,94.41174745373158,98.57061104157751)" fill="#111111"><path d="M1.3965 5.195 l4.8047 0 l0 1.6895 l-1.4844 0 l0 11.436 l5.1074 0 q0.15625 0 0.3125 -0.0732421875 t0.2832 -0.19043 t0.20508 -0.26855 t0.078125 -0.30762 l0 -1.8652 l1.8555 0 l0 4.3848 l-11.162 0 l0 -1.6797 l1.4063 0 l0 -11.436 l-1.4063 0 l0 -1.6895 z M13.75975 5.195 l4.7949 0 l0 1.6895 l-1.5137 0 l0 6.8945 q0 1.240234375 0.2783203125 2.114257813 t0.77148 1.4258 t1.1719 0.80566 t1.4893 0.25391 q0.83984375 0 1.54296875 -0.224609375 t1.2061 -0.75684 t0.78125 -1.416 t0.27832 -2.2021 l0 -6.8945 l-1.6016 0 l0 -1.6895 l4.7949 0 l0 1.6895 l-1.3184 0 l0 6.6797 q0 1.6015625 -0.4443359375 2.841796875 t-1.2158 2.0801 t-1.8164 1.2744 t-2.2461 0.43457 q-1.171875 0 -2.192382813 -0.4296875 t-1.7773 -1.2598 t-1.1914 -2.0264 t-0.43457 -2.7393 l0 -6.8555 l-1.3574 0 l0 -1.6895 z M17.27535 2.030999999999999 q0 -0.25390625 0.1025390625 -0.4833984375 t0.27344 -0.40039 t0.40039 -0.27344 t0.4834 -0.10254 q0.244140625 0 0.46875 0.1025390625 t0.39063 0.27344 t0.26367 0.40039 t0.097656 0.4834 q0 0.263671875 -0.09765625 0.498046875 t-0.26367 0.41504 t-0.39063 0.2832 t-0.46875 0.10254 q-0.25390625 0 -0.4833984375 -0.1025390625 t-0.40039 -0.2832 t-0.27344 -0.41504 t-0.10254 -0.49805 z M21.757849999999998 2.030999999999999 q0 -0.25390625 0.1025390625 -0.4833984375 t0.27344 -0.40039 t0.40039 -0.27344 t0.4834 -0.10254 q0.244140625 0 0.4638671875 0.1025390625 t0.39063 0.27344 t0.26855 0.40039 t0.097656 0.4834 q0 0.263671875 -0.09765625 0.498046875 t-0.26855 0.41504 t-0.39063 0.2832 t-0.46387 0.10254 q-0.25390625 0 -0.4833984375 -0.1025390625 t-0.40039 -0.2832 t-0.27344 -0.41504 t-0.10254 -0.49805 z M38.99396875 6.885 l0 -1.6895 l3.3984 0 l0 1.6895 l-1.1621 0 l-6.4844 5.459 l6.0645 5.9766 l1.582 0 l0 1.6797 l-3.9844 0 l0 -1.6797 l-5.8789 -5.8789 z M29.20896875 5.195 l4.8047 0 l0 1.6895 l-1.5039 0 l0 11.436 l1.4844 0 l0 1.6797 l-4.8047 0 l0 -1.6797 l1.4063 0 l0 -11.436 l-1.3867 0 l0 -1.6895 z"></path></g>
			</g>
		</svg>
	